<?xml version="1.0" encoding="utf-8"?>
<!-- Generator: Adobe Illustrator 25.0.1, SVG Export Plug-In . SVG Version: 6.00 Build 0)  -->
<svg version="1.0" id="katman_1" xmlns="http://www.w3.org/2000/svg" xmlns:xlink="http://www.w3.org/1999/xlink" x="0px" y="0px"
	 viewBox="0 0 1220.3 799.7" style="enable-background:new 0 0 1220.3 799.7;" xml:space="preserve">
<style type="text/css">
	.st0{fill:#EF0000;}
	.st1{fill:#FF424D;}
</style>
<g>
	<circle class="st0" cx="253.8" cy="393.3" r="88.7"/>
	<rect x="96.6" y="304.6" class="st0" width="43.4" height="236.7"/>
</g>
<g>
	<g>
		<path class="st1" d="M415.5,346h39.4c20.8,0,34.3,15.7,34.3,34c0,18.3-13.4,34-34.3,34h-17.6v26.1h-21.8V346z M467.2,380
			c0-8.7-5.9-16.3-15.1-16.3h-14.9v32.5h14.9C461.3,396.3,467.2,388.8,467.2,380z"/>
		<path class="st1" d="M572.5,440.1l-3.6-11.4h-33.5l-3.6,11.4h-23.3l33.6-94.1h20l34,94.1H572.5z M552.2,372.9l-11.6,38.7h22.9
			L552.2,372.9z"/>
		<path class="st1" d="M632.7,364.8h-21.2V346h64.4v18.8h-21.4v75.3h-21.8V364.8z"/>
		<path class="st1" d="M709.8,346h39.5c20.8,0,34.3,15.7,34.3,34c0,13.2-7,24.9-18.7,30.4l18.8,29.7h-25.3L741.8,414h-10.2v26.1
			h-21.8V346z M761.5,380c0-8.7-5.9-16.3-15.1-16.3h-14.9v32.5h14.9C755.6,396.3,761.5,388.8,761.5,380z"/>
		<path class="st1" d="M842.3,363.5v21.4H878v17.1h-35.6v20.7H878v17.5h-57.4V346H878v17.5H842.3z"/>
		<path class="st1" d="M913.3,393.1c0-25.8,18.6-49.5,49.9-49.5c31.2,0,49.7,23.7,49.7,49.5c0,25.8-18.6,49.5-49.7,49.5
			C931.9,442.5,913.3,418.9,913.3,393.1z M990.8,393.1c0-15.5-10.5-29.8-27.6-29.8c-17.2,0-27.6,14.4-27.6,29.8
			c0,15.5,10.4,29.8,27.6,29.8C980.3,422.9,990.8,408.5,990.8,393.1z"/>
		<path class="st1" d="M1105.8,407.3V346h21.6v94.1h-22.7l-33.9-60.5v60.5h-21.8V346h22.7L1105.8,407.3z"/>
	</g>
</g>
</svg>
