<?xml version="1.0" encoding="UTF-8"?>
<svg id="Layer_1" data-name="Layer 1" xmlns="http://www.w3.org/2000/svg" viewBox="0 0 751.33 876.88">
  <defs>
    <style>
      .cls-1, .cls-2, .cls-3 {
        fill-rule: evenodd;
        stroke-width: 0px;
      }

      .cls-2 {
        fill: #ff004f;
      }

      .cls-3 {
        fill: #00f7ef;
      }
    </style>
  </defs>
  <path class="cls-3" d="m86.82,774.43c-181.18-157.22-64-507.26,214.54-463.22v32.42c-235.24-10.94-338.79,269.66-214.54,430.8ZM594.89,167.2c28.62,22.87,68.09,39.74,122.5,42.96v31.76c-60.21-11.12-98.37-41.04-122.5-74.72ZM519.36,0c-.04,11.72,1.48,24.31,3.4,35.81h-111.04v552.87c0,25.49-2.62,48.18-7.84,68.09-45.22,99.67-173.25,86.65-208.63,18.25,52.67,32.98,139.28,24.22,174.83-54.06,5.18-19.87,7.8-42.61,7.8-68.09V0h141.49Z"/>
  <path class="cls-1" d="m553.21,35.81v.71c.04,12.8,3.79,197.9,198.04,209.45,0,172.2.09,0,.09,143.02-14.59.87-127.86-7.32-198.34-70.19l-.22,278.42c1.74,126.07-68.44,249.71-199.83,274.62-36.81,6.97-69.96,7.76-125.6-4.4C-93.19,771.56,13.32,296.15,335.17,347.03c0,153.48.09-.04.09,153.48-132.96-19.56-177.44,91.05-142.1,170.24,32.16,72.1,164.54,87.74,210.72-13.98,5.23-19.91,7.84-42.61,7.84-68.09V35.81h141.49Z"/>
  <path class="cls-2" d="m301.36,343.63c10.97.48,22.26,1.56,33.81,3.39,0,153.48.09-.04.09,153.48-132.96-19.56-177.44,91.05-142.1,170.24.65,1.44,1.35,2.88,2.09,4.27-15.81-9.89-28.53-23.48-35.93-40.08-35.29-79.2,9.14-189.8,142.1-170.25,0-140.67-.04-23.61-.04-121.06Zm416.03-101.71c10.58,1.95,21.87,3.34,33.85,4.05,0,172.2.09,0,.09,143.02-14.59.87-127.86-7.32-198.34-70.19l-.22,278.42c1.74,126.07-68.44,249.71-199.83,274.62-36.81,6.97-69.96,7.76-125.6-4.4-62.64-18.73-108.9-52.01-140.53-93.01,28.18,24.48,63.55,44.3,106.73,57.24,55.58,12.11,88.74,11.33,125.55,4.35,131.39-24.92,201.57-148.55,199.87-274.58l.18-278.46c70.48,62.87,183.75,71.1,198.39,70.18,0-132.82-.13,6.19-.13-111.25Zm-164.19-206.11v.71c0,7.53,1.35,74.36,41.69,130.68-48.62-38.9-65.95-95.09-72.14-131.39h30.45Z"/>
</svg>