<?xml version="1.0" encoding="UTF-8"?>
<svg id="UI" xmlns="http://www.w3.org/2000/svg" viewBox="0 0 83.23 64.48">
  <defs>
    <style>
      .cls-1 {
        fill: #0fadb5;
      }
    </style>
  </defs>
  <path class="cls-1" d="M6.1,10.62V3.16c.64-.22,1.37-.51,2.13-.73,10.88-3.16,21.76-3.27,32.65-.03.5.15,1.13.09,1.65-.06C50.92.02,59.4-.75,67.99.83c2.84.52,5.63,1.32,8.45,2.01.27.06.51.23.8.37v7.31h5.99v53.97c-1.17-.36-2.19-.68-3.23-.99-6.74-1.97-13.63-2.9-20.64-2.63-5.43.21-10.79,1.02-15.97,2.74-1.43.47-2.69.19-4.02-.22-6.65-2.02-13.47-2.78-20.39-2.51-6.14.24-12.12,1.41-17.96,3.34-.29.1-.59.15-1.01.25,0-.49,0-.85,0-1.22C0,46.46,0,29.67,0,12.89q0-2.26,2.31-2.27c1.22,0,2.44,0,3.79,0ZM40.19,5.25c-.5-.17-.89-.34-1.31-.44-9.61-2.48-19.21-2.54-28.81.1-.93.26-1.1.84-1.1,1.67,0,15.08,0,30.16,0,45.24,0,.35.11.69.19,1.16,5.19-1.29,10.3-2.05,15.51-2.06,5.24,0,10.35.86,15.51,2.08V5.25ZM74.28,52.97V5.14c-10.41-2.88-20.74-2.97-31.12.03v47.83c5.18-1.3,10.31-2.07,15.56-2.08,5.24,0,10.37.82,15.56,2.06ZM77.05,56.93c-.32-.06-.43-.06-.53-.1-5.58-2.04-11.37-2.97-17.28-3.05-5.18-.07-10.3.59-15.28,2.11-1.47.45-2.87.5-4.38.04-4.69-1.44-9.52-2.12-14.41-2.15-5.85-.03-11.6.76-17.17,2.67-.55.19-1.13.27-1.95.46V13.69h-2.97v46.63c.23.03.35.08.45.06.4-.07.79-.16,1.18-.23,4.04-.7,8.05-1.73,12.11-2.03,8.03-.58,15.98.22,23.74,2.55.72.22,1.62.22,2.34,0,6.71-1.99,13.55-2.8,20.54-2.68,4.3.07,8.51.69,12.7,1.53,1.33.27,2.65.62,4.13.97V13.69h-2.83c-.1.53-.27,1.03-.27,1.52,0,1.06.12,2.13.12,3.19.01,11.91.01,23.82,0,35.73,0,.9-.15,1.81-.24,2.8Z"/>
  <path class="cls-1" d="M33.77,23.25c-6.29-1.43-12.35-1.16-18.52-.07v-3.01c6.19-1.12,12.33-1.4,18.52.06v3.01Z"/>
  <path class="cls-1" d="M33.82,36.93v2.98c-6.21-1.43-12.32-1.28-18.55-.05v-3.04c6.19-1.17,12.32-1.38,18.55.11Z"/>
  <path class="cls-1" d="M15.24,28.51c6.29-1.19,12.39-1.37,18.57.07v2.97c-6.25-1.33-12.38-1.29-18.57-.02v-3.02Z"/>
  <path class="cls-1" d="M49.53,23.28v-3.07c6.19-1.27,12.31-1.33,18.56,0v2.96c-6.17-.98-12.27-1.42-18.56.11Z"/>
  <path class="cls-1" d="M68.1,28.58v2.72c-3.15-.25-6.22-.69-9.3-.7-3.04,0-6.08.44-9.25.69v-2.86c6.26-1.06,12.36-1.36,18.54.13Z"/>
  <path class="cls-1" d="M68.1,36.9v2.95c-6.16-1.12-12.24-1.47-18.56.09-.05-1.12-.1-2.05-.14-3.02,6.32-1.32,12.43-1.46,18.7-.02Z"/>
</svg>